<?xml version="1.0" encoding="UTF-8"?><svg id="Acdemic_Research_Paper" xmlns="http://www.w3.org/2000/svg" viewBox="0 0 24 24"><rect x="22" y="19" width="1" height="2"/><rect x="21" y="18" width="1" height="1"/><rect x="20" y="21" width="2" height="1"/><rect x="20" y="4" width="1" height="14"/><polygon points="22 19 22 21 20 21 20 20 19 20 19 18 21 18 21 19 22 19" fill="#2b3b47"/><rect x="19" y="3" width="1" height="1"/><path d="m17,5v-3H6v3h1v1h1v1h1v3h-1v1h-1v4h-1v5h13v-1h-1v-1h-1v-1h-1v1h-4v-1h-2v-2h-1v-4h1v-2h2v-1h4v1h2v2h1v4h-1v1h1v1h1V5h-3Zm-9-1h7v1h-7v-1Zm2,3v-1h8v1h-8Z" fill="#fff"/><polygon points="20 17 20 18 19 18 19 19 18 19 18 18 17 18 17 17 18 17 18 16 19 16 19 17 20 17" fill="#597b91"/><rect x="18" y="2" width="1" height="1"/><polygon points="20 4 20 5 17 5 17 2 18 2 18 3 19 3 19 4 20 4" fill="#afafaf"/><rect x="5" y="1" width="13" height="1"/><rect x="8" y="4" width="7" height="1" fill="#afafaf"/><rect x="10" y="6" width="8" height="1" fill="#afafaf"/><path d="m18,11v-2h-2v-1h-4v1h-2v2h-1v4h1v2h2v1h4v-1h2v-2h1v-4h-1Zm-1,4h-1v1h-4v-1h-1v-4h1v-1h4v1h1v4Z" fill="#8ac9fe"/><polygon points="17 11 17 15 16 15 16 16 12 16 12 15 11 15 11 11 12 11 12 10 16 10 16 11 17 11" fill="#b0e9ff"/><polygon points="7 13 7 15 6 15 6 16 5 16 5 15 4 15 4 13 7 13" fill="#4b596a"/><rect x="4" y="12" width="3" height="1" fill="#7d8996"/><polygon points="9 7 9 10 8 10 8 11 7 11 7 12 6 12 6 10 7 10 7 8 6 8 6 9 5 9 5 8 4 8 4 10 5 10 5 12 4 12 4 11 3 11 3 10 2 10 2 7 3 7 3 6 4 6 4 5 7 5 7 6 8 6 8 7 9 7" fill="#fcd53f"/><rect x="5" y="22" width="15" height="1"/><rect x="4" y="21" width="1" height="1"/><polygon points="20 20 20 22 5 22 5 21 4 21 4 15 5 15 5 16 6 16 6 20 20 20" fill="#afafaf"/><polygon points="7 8 7 10 6 10 6 12 5 12 5 10 4 10 4 8 5 8 5 9 6 9 6 8 7 8" fill="#ffb02e"/><polygon points="6 2 6 5 4 5 4 3 5 3 5 2 6 2" fill="#afafaf"/><rect x="4" y="2" width="1" height="1"/><rect x="3" y="11" width="1" height="10"/><rect x="3" y="3" width="1" height="3"/><rect x="2" y="10" width="1" height="1"/><rect x="2" y="6" width="1" height="1"/><rect x="1" y="7" width="1" height="3"/></svg>