<?xml version="1.0" encoding="UTF-8"?><svg id="HODL_copy_6" xmlns="http://www.w3.org/2000/svg" viewBox="0 0 24 24"><rect x="22" y="9" width="1" height="4"/><rect x="21" y="13" width="1" height="1"/><rect x="21" y="9" width="1" height="4" fill="#ef9520"/><rect x="21" y="8" width="1" height="1"/><rect x="20" y="14" width="1" height="6"/><rect x="21" y="20" width="1" height="2"/><rect x="3" y="22" width="18" height="1"/><rect x="2" y="20" width="1" height="2"/><rect x="3" y="14" width="1" height="6"/><rect x="6" y="4" width="1" height="1"/><rect x="2" y="8" width="1" height="1"/><rect x="7" y="3" width="1" height="1"/><rect x="8" y="2" width="2" height="1"/><rect x="1" y="9" width="1" height="4"/><rect x="4" y="5" width="2" height="1"/><rect x="3" y="6" width="1" height="2"/><rect x="10" y="1" width="4" height="1"/><rect x="2" y="13" width="1" height="1"/><rect x="14" y="2" width="2" height="1"/><rect x="20" y="13" width="1" height="1" fill="#ef9520"/><rect x="20" y="9" width="1" height="4" fill="#ffd100"/><rect x="20" y="8" width="1" height="1" fill="#ef9520"/><rect x="20" y="6" width="1" height="2"/><polygon points="21 20 21 22 13 22 13 21 14 21 14 20 19 20 19 14 20 14 20 20 21 20" fill="#2b6da3"/><rect x="18" y="5" width="2" height="1"/><rect x="17" y="4" width="1" height="1"/><rect x="16" y="4" width="1" height="1" fill="#ef9520"/><rect x="16" y="3" width="1" height="1"/><polygon points="16 4 16 5 8 5 8 4 10 4 10 3 14 3 14 4 16 4" fill="#ffd100"/><rect x="14" y="3" width="2" height="1" fill="#ef9520"/><rect x="13" y="10" width="1" height="2" fill="#fff"/><rect x="10" y="2" width="4" height="1" fill="#ef9520"/><polygon points="11 21 11 22 3 22 3 20 4 20 4 14 5 14 5 20 10 20 10 21 11 21" fill="#2b6da3"/><rect x="7" y="9" width="3" height="1" fill="#fff"/><rect x="8" y="3" width="2" height="1" fill="#ef9520"/><rect x="7" y="4" width="1" height="1" fill="#ef9520"/><path d="m19,8v-1H5v1h-1v6h1v6h5v1h1v1h2v-1h1v-1h5v-6h1v-6h-1Zm-13,2h1v-1h3v1h1v2h-1v1h-3v-1h-1v-2Zm12,8H6v-2h12v2Zm0-6h-1v1h-3v-1h-1v-2h1v-1h3v1h1v2Z" fill="#7dc2f9"/><rect x="14" y="12" width="3" height="1" fill="#fff"/><rect x="17" y="10" width="1" height="2" fill="#fff"/><rect x="14" y="9" width="3" height="1" fill="#fff"/><rect x="6" y="10" width="1" height="2" fill="#fff"/><rect x="10" y="10" width="1" height="2" fill="#fff"/><rect x="7" y="12" width="3" height="1" fill="#fff"/><rect x="7" y="16" width="1" height="2" fill="#fff"/><rect x="10" y="16" width="1" height="2" fill="#fff"/><rect x="16" y="16" width="1" height="2" fill="#fff"/><rect x="13" y="16" width="1" height="2" fill="#fff"/><rect x="7" y="10" width="3" height="2" fill="#d22b45"/><rect x="14" y="10" width="3" height="2" fill="#d22b45"/><rect x="17" y="16" width="1" height="2" fill="#d0edf4"/><rect x="14" y="16" width="2" height="2" fill="#d0edf4"/><rect x="6" y="16" width="1" height="2" fill="#d0edf4"/><rect x="8" y="16" width="2" height="2" fill="#d0edf4"/><rect x="11" y="16" width="2" height="2" fill="#d0edf4"/><polygon points="20 6 20 8 19 8 19 7 5 7 5 8 4 8 4 6 6 6 6 5 18 5 18 6 20 6" fill="#2b6da3"/><rect x="3" y="13" width="1" height="1" fill="#ef9520"/><rect x="3" y="9" width="1" height="4" fill="#ffd100"/><rect x="3" y="8" width="1" height="1" fill="#ef9520"/><rect x="2" y="9" width="1" height="4" fill="#ef9520"/></svg>