<?xml version="1.0" encoding="UTF-8"?><svg id="HODL_copy_5" xmlns="http://www.w3.org/2000/svg" viewBox="0 0 24 24"><rect x="12" y="1" width="10" height="1"/><polygon points="22 22 22 23 2 23 2 22 11 22 11 9 2 9 2 8 11 8 11 2 12 2 12 22 22 22"/><rect x="22" y="2" width="1" height="20"/><rect x="20" y="10" width="1" height="1" fill="#363636"/><rect x="20" y="7" width="1" height="1" fill="#363636"/><rect x="19" y="3" width="2" height="2"/><rect x="19" y="15" width="2" height="2"/><rect x="19" y="12" width="2" height="2"/><polygon points="21 9 21 10 20 10 20 11 19 11 19 9 21 9"/><polygon points="21 6 21 7 20 7 20 8 19 8 19 6 21 6"/><rect x="16" y="15" width="2" height="2"/><rect x="16" y="12" width="2" height="2" fill="#363636"/><rect x="16" y="9" width="2" height="2"/><rect x="16" y="6" width="2" height="2"/><polygon points="18 3 18 5 16 5 16 4 17 4 17 3 18 3" fill="#363636"/><rect x="16" y="3" width="1" height="1"/><polygon points="21 18 21 21 19 21 19 20 16 20 16 19 15 19 15 18 21 18"/><rect x="13" y="15" width="2" height="2"/><polygon points="15 13 15 14 13 14 13 12 14 12 14 13 15 13"/><rect x="14" y="12" width="1" height="1" fill="#363636"/><rect x="13" y="6" width="2" height="2"/><rect x="13" y="3" width="2" height="2"/><polygon points="19 20 19 21 13 21 13 18 15 18 15 19 16 19 16 20 19 20" fill="#363636"/><path d="m21,6v2h-3v3h-2v-1h-1v4h1v-2h2v2h-2v1h2v2h-2v-2h-1v2h-2v1h8v3h-8v-3h-1v4h10V6h-1Zm0,11h-2v-2h2v2Zm0-3h-2v-2h2v2Zm0-3h-2v-2h2v2Z" fill="#f69e00"/><rect x="13" y="9" width="2" height="2"/><path d="m12,2v16h1v-3h3v-1h-3v-2h2v-1h-2v-2h2v1h1v-1h2v-1h-2v-2h2v2h1v-2h3V2h-10Zm3,6h-2v-2h2v2Zm0-3h-2v-2h2v2Zm3,0h-2v-2h2v2Zm3,0h-2v-2h2v2Z" fill="#ffd100"/><rect x="7" y="16" width="3" height="2"/><rect x="7" y="13" width="3" height="2"/><rect x="7" y="10" width="3" height="2" fill="#363636"/><polygon points="8 19 8 22 7 22 7 21 6 21 6 19 8 19"/><polygon points="7 21 7 22 5 22 5 19 6 19 6 21 7 21" fill="#363636"/><polygon points="6 16 6 18 4 18 4 17 5 17 5 16 6 16" fill="#363636"/><rect x="5" y="15" width="1" height="1" fill="#1de4b0"/><rect x="3" y="13" width="3" height="2"/><polygon points="6 10 6 12 3 12 3 11 5 11 5 10 6 10"/><polygon points="5 19 5 22 2 22 2 21 3 21 3 19 5 19" fill="#1abd93"/><polygon points="5 16 5 17 4 17 4 18 3 18 3 16 5 16"/><path d="m2,9v12h1v-2h5v3h3v-13H2Zm4,9h-3v-2h2v-1h-2v-2h3v5Zm-3-6v-2h3v2h-3Zm7,6h-3v-2h3v2Zm0-3h-3v-2h3v2Zm0-3h-3v-2h3v2Z" fill="#1de4b0"/><rect x="3" y="10" width="2" height="1" fill="#363636"/><rect x="1" y="9" width="1" height="13"/></svg>