<?xml version="1.0" encoding="UTF-8"?><svg id="HODL_copy_4" xmlns="http://www.w3.org/2000/svg" viewBox="0 0 24 24"><rect x="21" y="2" width="1" height="1"/><polygon points="23 3 23 21 22 21 22 6 2 6 2 21 1 21 1 3 2 3 2 5 22 5 22 3 23 3"/><rect x="20" y="13" width="1" height="2" fill="lime"/><rect x="19" y="3" width="1" height="1" fill="lime"/><rect x="18" y="17" width="1" height="1" fill="lime"/><polygon points="18 18 18 19 17 19 17 20 15 20 15 19 16 19 16 18 18 18" fill="lime"/><polygon points="20 12 20 16 19 16 19 17 18 17 18 18 17 18 17 16 18 16 18 15 19 15 19 13 18 13 18 11 19 11 19 12 20 12" fill="#00b800"/><rect x="15" y="3" width="3" height="1" fill="lime"/><rect x="16" y="2" width="2" height="1" fill="#054905"/><polygon points="19 10 19 11 18 11 18 12 17 12 17 10 16 10 16 9 15 9 15 8 17 8 17 9 18 9 18 10 19 10" fill="lime"/><path d="m21,3v-1h-3v2h-3v-1h-1v1h-4v1h12v-2h-1Zm-1,1h-1v-1h1v1Z" fill="#054905"/><rect x="13" y="9" width="1" height="3" fill="#00b800"/><rect x="13" y="3" width="1" height="1" fill="lime"/><rect x="12" y="15" width="1" height="1" fill="#00b800"/><rect x="11" y="17" width="1" height="3" fill="#00b800"/><polygon points="14 7 14 9 13 9 13 15 12 15 12 17 11 17 11 21 10 21 10 16 11 16 11 13 12 13 12 8 13 8 13 7 14 7" fill="lime"/><rect x="10" y="3" width="2" height="1" fill="lime"/><rect x="7" y="19" width="2" height="1" fill="#00b800"/><polygon points="21 6 21 8 20 8 20 10 18 10 18 9 17 9 17 8 15 8 15 9 16 9 16 11 15 11 15 13 14 13 14 14 13 14 13 12 14 12 14 7 13 7 13 8 12 8 12 13 11 13 11 16 9 16 9 18 7 18 7 16 6 16 6 15 5 15 5 13 6 13 6 12 7 12 7 10 8 10 8 9 9 9 9 8 7 8 7 9 6 9 6 10 5 10 5 12 4 12 4 13 3 13 3 15 4 15 4 16 5 16 5 18 6 18 6 19 7 19 7 20 6 20 6 21 5 21 5 22 3 22 3 21 2 21 2 6 21 6" fill="#056405"/><polygon points="9 8 9 9 8 9 8 10 7 10 7 12 6 12 6 13 5 13 5 15 6 15 6 16 4 16 4 15 3 15 3 13 4 13 4 12 5 12 5 10 6 10 6 9 7 9 7 8 9 8" fill="lime"/><rect x="8" y="3" width="1" height="1" fill="lime"/><rect x="7" y="18" width="1" height="1" fill="lime"/><polygon points="7 17 7 19 6 19 6 18 5 18 5 16 6 16 6 17 7 17" fill="#00b800"/><rect x="6" y="16" width="1" height="1" fill="lime"/><polygon points="22 6 22 21 21 21 21 22 5 22 5 21 6 21 6 20 9 20 9 19 8 19 8 18 9 18 9 16 10 16 10 21 11 21 11 20 12 20 12 16 13 16 13 14 14 14 14 13 15 13 15 11 16 11 16 10 17 10 17 12 18 12 18 13 19 13 19 15 18 15 18 16 17 16 17 18 16 18 16 19 15 19 15 20 17 20 17 19 18 19 18 18 19 18 19 16 20 16 20 15 21 15 21 13 20 13 20 12 19 12 19 10 20 10 20 8 21 8 21 6 22 6" fill="#054905"/><rect x="3" y="22" width="18" height="1"/><rect x="21" y="21" width="1" height="1"/><rect x="2" y="21" width="1" height="1"/><path d="m3,2v1h-1v2h8v-2h2v1h1v-1h3v-1H3Zm4,2h-3v-1h3v1Zm2,0h-1v-1h1v1Z" fill="#056405"/><rect x="3" y="1" width="18" height="1"/><rect x="4" y="3" width="3" height="1" fill="lime"/><rect x="2" y="2" width="1" height="1"/></svg>