<?xml version="1.0" encoding="UTF-8"?><svg id="HODL_copy_2" xmlns="http://www.w3.org/2000/svg" viewBox="0 0 24 24"><path d="m4,4v3h3v-3h-3Zm2,2h-1v-1h1v1Z" fill="#ffd100"/><rect x="5" y="5" width="1" height="1"/><rect x="18" y="21" width="1" height="1"/><rect x="19" y="20" width="1" height="1"/><rect x="21" y="18" width="1" height="1"/><rect x="20" y="19" width="1" height="1"/><path d="m1,1v22h17v-1h-1v-5h5v1h1V1H1Zm21,15h-6v6H2V2h20v14Z"/><polygon points="22 17 22 18 21 18 21 19 20 19 20 20 19 20 19 21 18 21 18 22 17 22 17 17 22 17" fill="#989898"/><rect x="3" y="20" width="12" height="1"/><rect x="3" y="18" width="12" height="1"/><rect x="3" y="16" width="12" height="1"/><rect x="3" y="14" width="18" height="1"/><rect x="3" y="11" width="5" height="1"/><rect x="3" y="9" width="3" height="1"/><rect x="9" y="3" width="12" height="1"/><rect x="9" y="5" width="12" height="1"/><rect x="10" y="7" width="11" height="1"/><rect x="12" y="9" width="9" height="1"/><rect x="12" y="11" width="9" height="1"/><rect x="3" y="4" width="1" height="3"/><polygon points="11 10 11 12 10 12 10 11 9 11 9 10 8 10 8 9 7 9 7 8 4 8 4 7 7 7 7 4 8 4 8 8 9 8 9 9 10 9 10 10 11 10"/><rect x="4" y="3" width="3" height="1"/><path d="m2,2v20h14v-6h6V2H2Zm7,1h12v1h-12v-1Zm0,2h12v1h-12v-1Zm1,3v-1h11v1h-11ZM3,4h1v-1h3v1h1v4h1v1h1v1h1v2h-1v-1h-1v-1h-1v-1h-1v-1h-3v-1h-1v-3Zm0,5h3v1h-3v-1Zm0,2h5v1H3v-1Zm12,10H3v-1h12v1Zm0-2H3v-1h12v1Zm0-2H3v-1h12v1Zm6-2H3v-1h18v1Zm0-3h-9v-1h9v1Zm0-2h-9v-1h9v1Z" fill="#fff"/></svg>