<?xml version="1.0" encoding="UTF-8"?><svg id="HODL_copy" xmlns="http://www.w3.org/2000/svg" viewBox="0 0 24 24"><rect x="6" y="11" width="1" height="1" fill="#e1bf28"/><rect x="17" y="11" width="1" height="1" fill="#e1bf28"/><rect x="19" y="9" width="1" height="1" fill="#fffc00"/><rect x="17" y="10" width="1" height="1" fill="#fffc00"/><rect x="16" y="11" width="1" height="1" fill="#fffc00"/><rect x="4" y="9" width="1" height="1" fill="#fffc00"/><rect x="6" y="10" width="1" height="1" fill="#fffc00"/><rect x="7" y="11" width="1" height="1" fill="#fffc00"/><rect x="5" y="10" width="1" height="2" fill="#a6a6a6"/><path d="m22,2v-1H2v1h-1v20h1v1h20v-1h1V2h-1Zm0,9h-1v1h-1v1h-2v1h-2v2h1v2h1v2h1v2H5v-2h1v-2h1v-2h1v-2h-2v-1h-2v-1h-1v-1h-1v-1h1v-1h2v-1h2v-1h1v-1h1v-1h6v1h1v1h1v1h2v1h2v1h1v1Z"/><rect x="11" y="12" width="2" height="1" fill="#e1bf28"/><rect x="18" y="10" width="1" height="2" fill="#a6a6a6"/><polygon points="17 12 17 13 15 13 15 14 9 14 9 13 7 13 7 12 8 12 8 11 11 11 11 13 13 13 13 11 16 11 16 12 17 12" fill="#a6a6a6"/><rect x="11" y="11" width="2" height="1" fill="#fffc00"/><polygon points="17 21 17 22 7 22 7 21 8 21 8 20 9 20 9 18 10 18 10 17 11 17 11 16 13 16 13 17 14 17 14 18 15 18 15 20 16 20 16 21 17 21" fill="#fffc00"/><polygon points="19 20 19 22 17 22 17 21 16 21 16 20 15 20 15 18 14 18 14 17 13 17 13 16 11 16 11 17 10 17 10 18 9 18 9 20 8 20 8 21 7 21 7 22 5 22 5 20 6 20 6 18 7 18 7 16 8 16 8 15 16 15 16 16 17 16 17 18 18 18 18 20 19 20" fill="#e1bf28"/><rect x="7" y="10" width="10" height="1" fill="#6d6d6d"/><rect x="17" y="8" width="2" height="2" fill="#6d6d6d"/><polygon points="22 10 22 11 21 11 21 12 20 12 20 13 18 13 18 14 16 14 16 15 8 15 8 14 6 14 6 13 4 13 4 12 3 12 3 11 2 11 2 10 3 10 3 9 4 9 4 10 5 10 5 12 7 12 7 13 9 13 9 14 15 14 15 13 17 13 17 12 19 12 19 10 20 10 20 9 21 9 21 10 22 10" fill="#6d6d6d"/><rect x="5" y="8" width="2" height="2" fill="#6d6d6d"/><polygon points="12 7 12 9 11 9 11 10 7 10 7 7 8 7 8 6 9 6 9 5 10 5 10 6 11 6 11 7 12 7" fill="#7dc2f9"/><polygon points="15 8 15 9 13 9 13 10 11 10 11 9 12 9 12 7 11 7 11 6 10 6 10 5 13 5 13 6 14 6 14 8 15 8" fill="#3f9eec"/><polygon points="17 7 17 10 13 10 13 9 15 9 15 8 14 8 14 6 13 6 13 5 15 5 15 6 16 6 16 7 17 7" fill="#2b6da3"/></svg>