<?xml version="1.0" encoding="UTF-8"?><svg id="HODL" xmlns="http://www.w3.org/2000/svg" viewBox="0 0 24 24"><rect x="3" y="18" width="1" height="1"/><rect x="4" y="19" width="1" height="1"/><rect x="5" y="20" width="1" height="1"/><rect x="4" y="4" width="1" height="1"/><rect x="2" y="16" width="1" height="2"/><rect x="3" y="5" width="1" height="1"/><rect x="6" y="21" width="2" height="1"/><rect x="1" y="8" width="1" height="8"/><rect x="8" y="1" width="8" height="1"/><rect x="2" y="6" width="1" height="2"/><rect x="8" y="22" width="8" height="1"/><rect x="16" y="21" width="2" height="1"/><rect x="16" y="2" width="2" height="1"/><rect x="5" y="3" width="1" height="1"/><rect x="6" y="2" width="2" height="1"/><rect x="18" y="3" width="1" height="1"/><rect x="18" y="20" width="1" height="1"/><rect x="19" y="4" width="1" height="1"/><rect x="19" y="19" width="1" height="1"/><rect x="21" y="16" width="1" height="2"/><rect x="20" y="5" width="1" height="1"/><rect x="21" y="6" width="1" height="2"/><rect x="20" y="18" width="1" height="1"/><rect x="22" y="8" width="1" height="8"/><rect x="9" y="19" width="6" height="1"/><polygon points="22 8 22 16 21 16 21 18 20 18 20 19 19 19 19 20 18 20 18 21 16 21 16 22 8 22 8 21 6 21 6 20 8 20 8 19 9 19 9 20 15 20 15 19 17 19 17 18 18 18 18 17 19 17 19 15 20 15 20 9 19 9 19 8 20 8 20 6 21 6 21 8 22 8" fill="#cba600"/><rect x="19" y="9" width="1" height="6"/><polygon points="20 5 20 8 19 8 19 7 18 7 18 6 17 6 17 5 15 5 15 4 9 4 9 5 7 5 7 6 6 6 6 7 5 7 5 9 4 9 4 15 5 15 5 17 6 17 6 18 7 18 7 19 8 19 8 20 5 20 5 19 4 19 4 18 3 18 3 16 2 16 2 8 3 8 3 6 4 6 4 5 5 5 5 4 6 4 6 3 8 3 8 2 16 2 16 3 18 3 18 4 19 4 19 5 20 5" fill="#ffd100"/><rect x="18" y="15" width="1" height="2"/><rect x="18" y="7" width="1" height="2"/><rect x="17" y="17" width="1" height="1"/><rect x="17" y="6" width="1" height="1"/><rect x="15" y="5" width="2" height="1"/><rect x="15" y="18" width="2" height="1"/><rect x="14" y="12" width="1" height="2"/><rect x="14" y="10" width="1" height="1"/><rect x="9" y="4" width="6" height="1"/><polygon points="14 12 14 14 12 14 12 13 13 13 13 12 14 12" fill="#cb7419"/><polygon points="10 10 10 11 14 11 14 12 10 12 10 14 14 14 14 15 13 15 13 16 12 16 12 15 11 15 11 16 10 16 10 15 9 15 9 9 10 9 10 8 11 8 11 9 12 9 12 8 13 8 13 9 14 9 14 10 10 10"/><rect x="13" y="10" width="1" height="1" fill="#cb7419"/><rect x="10" y="10" width="3" height="1" fill="#ff941e"/><polygon points="19 9 19 15 18 15 18 17 17 17 17 18 15 18 15 19 9 19 9 18 7 18 7 17 9 17 9 16 11 16 11 15 12 15 12 16 13 16 13 15 14 15 14 14 15 14 15 12 14 12 14 11 15 11 15 10 14 10 14 9 15 9 15 7 16 7 16 6 17 6 17 7 18 7 18 9 19 9" fill="#cb7419"/><polygon points="13 12 13 13 12 13 12 14 10 14 10 12 13 12" fill="#ff941e"/><rect x="7" y="5" width="2" height="1"/><rect x="7" y="18" width="2" height="1"/><rect x="6" y="17" width="1" height="1"/><rect x="6" y="6" width="1" height="1"/><rect x="5" y="15" width="1" height="2"/><polygon points="16 6 16 7 15 7 15 9 13 9 13 8 12 8 12 9 11 9 11 8 10 8 10 9 9 9 9 15 10 15 10 16 9 16 9 17 6 17 6 15 5 15 5 9 6 9 6 7 7 7 7 6 9 6 9 5 15 5 15 6 16 6" fill="#ff941e"/><rect x="5" y="7" width="1" height="2"/><rect x="4" y="9" width="1" height="6"/></svg>