<?xml version="1.0" encoding="UTF-8"?><svg id="Interview" xmlns="http://www.w3.org/2000/svg" viewBox="0 0 24 24"><rect x="16" y="12" width="5" height="1"/><rect x="18" y="18" width="1" height="1" fill="#ef9520"/><rect x="17" y="17" width="1" height="1" fill="#ef9520"/><polygon points="17 16 17 17 10 17 10 14 11 14 11 16 17 16" fill="#ef9520"/><path d="m15,9v4h-1v1h-3v2h6v1h1v1h2v-1h2v-8h-7Zm6,6h-6v-1h6v1Zm0-2h-5v-1h5v1Zm0-2h-5v-1h5v1Z" fill="#ffd100"/><rect x="16" y="10" width="5" height="1"/><rect x="15" y="14" width="6" height="1"/><polygon points="14 5 14 13 7 13 7 12 13 12 13 5 14 5" fill="#ffd100"/><rect x="6" y="13" width="1" height="1" fill="#ffd100"/><rect x="5" y="14" width="1" height="1" fill="#ffd100"/><path d="m2,5v8h2v1h2v-1h1v-2h1v1h5v-7H2Zm5,5v-2h2v-1h-3v-1h4v3h-2v1h-1Z" fill="#fffc00"/><rect x="7" y="11" width="1" height="1"/><polygon points="10 6 10 9 8 9 8 10 7 10 7 8 9 8 9 7 6 7 6 6 10 6"/><rect x="1" y="5" width="1" height="8"/><rect x="2" y="4" width="12" height="1"/><rect x="2" y="13" width="2" height="1"/><rect x="6" y="14" width="1" height="1"/><polygon points="6 15 6 16 5 16 5 17 4 17 4 14 5 14 5 15 6 15"/><polygon points="10 17 9 17 9 14 7 14 7 13 14 13 14 14 10 14 10 17"/><rect x="17" y="18" width="1" height="1"/><polygon points="19 18 20 18 20 21 19 21 19 20 18 20 18 19 19 19 19 18"/><rect x="22" y="9" width="1" height="8"/><rect x="10" y="17" width="7" height="1"/><rect x="20" y="17" width="2" height="1"/><polygon points="22 8 22 9 15 9 15 13 14 13 14 5 15 5 15 8 22 8"/></svg>