<?xml version="1.0" encoding="UTF-8"?><svg id="Comedy_Satire" xmlns="http://www.w3.org/2000/svg" viewBox="0 0 24 24"><polygon points="5 15 5 18 2 18 2 16 4 16 4 15 5 15" fill="#3f9eec"/><polygon points="5 13 5 15 4 15 4 16 2 16 2 15 3 15 3 14 4 14 4 13 5 13" fill="#7dc2f9"/><rect x="4" y="18" width="1" height="1" fill="#ef9520"/><rect x="5" y="19" width="1" height="1" fill="#ef9520"/><rect x="6" y="20" width="2" height="1" fill="#ef9520"/><rect x="8" y="21" width="8" height="1" fill="#ef9520"/><rect x="16" y="20" width="2" height="1" fill="#ef9520"/><rect x="18" y="19" width="1" height="1" fill="#ef9520"/><rect x="19" y="18" width="1" height="1" fill="#ef9520"/><rect x="2" y="9" width="1" height="6" fill="#ef9520"/><rect x="3" y="6" width="1" height="3" fill="#ef9520"/><rect x="4" y="5" width="1" height="1" fill="#ef9520"/><rect x="5" y="4" width="2" height="1" fill="#ef9520"/><polygon points="17 3 17 4 14 4 14 3 10 3 10 4 7 4 7 3 9 3 9 2 15 2 15 3 17 3" fill="#ef9520"/><rect x="17" y="4" width="2" height="1" fill="#ef9520"/><rect x="19" y="5" width="1" height="1" fill="#ef9520"/><rect x="20" y="6" width="1" height="3" fill="#ef9520"/><rect x="21" y="6" width="1" height="3"/><rect x="20" y="5" width="1" height="1"/><rect x="19" y="4" width="1" height="1"/><rect x="17" y="3" width="2" height="1"/><rect x="15" y="2" width="2" height="1"/><rect x="9" y="1" width="6" height="1"/><rect x="7" y="2" width="2" height="1"/><rect x="5" y="3" width="2" height="1"/><rect x="4" y="4" width="1" height="1"/><rect x="3" y="5" width="1" height="1"/><rect x="2" y="6" width="1" height="3"/><rect x="1" y="9" width="1" height="9"/><rect x="2" y="18" width="2" height="1"/><rect x="4" y="19" width="1" height="1"/><rect x="5" y="20" width="1" height="1"/><rect x="6" y="21" width="2" height="1"/><rect x="8" y="22" width="8" height="1"/><rect x="22" y="9" width="1" height="9"/><polygon points="22 15 22 16 20 16 20 15 19 15 19 13 20 13 20 14 21 14 21 15 22 15" fill="#7dc2f9"/><rect x="21" y="9" width="1" height="6" fill="#ef9520"/><rect x="20" y="18" width="2" height="1"/><rect x="19" y="19" width="1" height="1"/><polygon points="22 16 22 18 19 18 19 15 20 15 20 16 22 16" fill="#3f9eec"/><rect x="19" y="10" width="1" height="1" fill="#914814"/><rect x="18" y="20" width="1" height="1"/><rect x="18" y="16" width="1" height="1" fill="#fffc00"/><rect x="18" y="9" width="1" height="1" fill="#914814"/><rect x="17" y="17" width="1" height="1" fill="#fffc00"/><rect x="17" y="16" width="1" height="1" fill="#914814"/><rect x="16" y="21" width="2" height="1"/><polygon points="19 17 19 19 18 19 18 20 16 20 16 19 17 19 17 18 18 18 18 17 19 17" fill="#ffd100"/><rect x="16" y="18" width="1" height="1" fill="#fffc00"/><rect x="16" y="17" width="1" height="1" fill="#914814"/><rect x="16" y="8" width="2" height="1" fill="#914814"/><rect x="15" y="19" width="1" height="1" fill="#fffc00"/><rect x="15" y="18" width="1" height="1" fill="#914814"/><polygon points="19 12 19 13 17 13 17 12 15 12 15 13 13 13 13 12 14 12 14 11 18 11 18 12 19 12" fill="#914814"/><rect x="10" y="3" width="4" height="1" fill="#ffd100"/><polygon points="17 7 17 8 16 8 16 10 13 10 13 11 11 11 11 10 8 10 8 8 7 8 7 7 8 7 8 6 9 6 9 5 10 5 10 4 14 4 14 5 15 5 15 6 16 6 16 7 17 7" fill="#fffc00"/><rect x="9" y="19" width="6" height="1" fill="#914814"/><rect x="8" y="20" width="8" height="1" fill="#ffd100"/><rect x="8" y="19" width="1" height="1" fill="#fffc00"/><rect x="8" y="18" width="1" height="1" fill="#914814"/><polygon points="16 17 16 18 15 18 15 19 9 19 9 18 8 18 8 17 16 17" fill="#b57018"/><rect x="7" y="18" width="1" height="1" fill="#fffc00"/><rect x="7" y="17" width="1" height="1" fill="#914814"/><rect x="6" y="17" width="1" height="1" fill="#fffc00"/><rect x="6" y="16" width="1" height="1" fill="#914814"/><polygon points="18 15 18 16 17 16 17 17 7 17 7 16 6 16 6 15 18 15" fill="#fff"/><polygon points="8 19 8 20 6 20 6 19 5 19 5 17 6 17 6 18 7 18 7 19 8 19" fill="#ffd100"/><rect x="5" y="16" width="1" height="1" fill="#fffc00"/><polygon points="19 14 19 16 18 16 18 15 6 15 6 16 5 16 5 14 19 14" fill="#914814"/><rect x="6" y="8" width="2" height="1" fill="#914814"/><polygon points="21 9 21 14 20 14 20 13 19 13 19 12 18 12 18 11 14 11 14 12 13 12 13 13 15 13 15 12 17 12 17 13 19 13 19 14 5 14 5 13 7 13 7 12 9 12 9 13 11 13 11 12 10 12 10 11 6 11 6 12 5 12 5 13 4 13 4 14 3 14 3 9 4 9 4 6 5 6 5 5 7 5 7 4 10 4 10 5 9 5 9 6 8 6 8 7 7 7 7 8 6 8 6 9 5 9 5 10 4 10 4 11 5 11 5 10 6 10 6 9 8 9 8 10 11 10 11 11 13 11 13 10 16 10 16 9 18 9 18 10 19 10 19 11 20 11 20 10 19 10 19 9 18 9 18 8 17 8 17 7 16 7 16 6 15 6 15 5 14 5 14 4 17 4 17 5 19 5 19 6 20 6 20 9 21 9" fill="#ffd100"/><polygon points="11 12 11 13 9 13 9 12 7 12 7 13 5 13 5 12 6 12 6 11 10 11 10 12 11 12" fill="#914814"/><rect x="5" y="9" width="1" height="1" fill="#914814"/><rect x="4" y="10" width="1" height="1" fill="#914814"/></svg>