<?xml version="1.0" encoding="UTF-8"?><svg id="News" xmlns="http://www.w3.org/2000/svg" viewBox="0 0 24 24"><rect x="20" y="21" width="2" height="1"/><rect x="1" y="4" width="1" height="17"/><rect x="2" y="21" width="1" height="1"/><rect x="3" y="22" width="17" height="1"/><rect x="4" y="1" width="17" height="1"/><rect x="21" y="2" width="1" height="1"/><rect x="13" y="15" width="6" height="1" fill="#adadad"/><polygon points="17 6 17 7 19 7 19 10 16 10 16 9 18 9 18 8 16 8 16 5 19 5 19 6 17 6" fill="#adadad"/><polygon points="15 5 15 10 14 10 14 9 13 9 13 10 12 10 12 5 13 5 13 8 14 8 14 5 15 5" fill="#adadad"/><rect x="13" y="19" width="5" height="1" fill="#adadad"/><rect x="13" y="17" width="6" height="1" fill="#adadad"/><rect x="13" y="13" width="6" height="1" fill="#adadad"/><polygon points="9 6 9 7 10 7 10 8 9 8 9 9 11 9 11 10 8 10 8 5 11 5 11 6 9 6" fill="#adadad"/><rect x="4" y="13" width="7" height="7" fill="#adadad"/><rect x="4" y="11" width="15" height="1" fill="#adadad"/><polygon points="7 5 7 10 6 10 6 6 5 6 5 10 4 10 4 5 7 5" fill="#adadad"/><rect x="22" y="3" width="1" height="18"/><polygon points="22 3 22 21 20 21 20 4 3 4 3 3 4 3 4 2 21 2 21 3 22 3" fill="#adadad"/><rect x="3" y="21" width="17" height="1" fill="#adadad"/><path d="m3,4v17h17V4H3Zm9,1h1v3h1v-3h1v5h-1v-1h-1v1h-1v-5Zm-4,0h3v1h-2v1h1v1h-1v1h2v1h-3v-5Zm-4,0h3v5h-1v-4h-1v4h-1v-5Zm0,15v-7h7v7h-7Zm14,0h-5v-1h5v1Zm1-2h-6v-1h6v1Zm0-2h-6v-1h6v1Zm0-2h-6v-1h6v1Zm0-2H4v-1h15v1Zm0-6h-2v1h2v3h-3v-1h2v-1h-2v-3h3v1Z" fill="#fff"/><rect x="3" y="2" width="1" height="1"/><rect x="2" y="4" width="1" height="17" fill="#adadad"/><rect x="2" y="3" width="1" height="1"/></svg>