<?xml version="1.0" encoding="UTF-8"?><svg id="HODL_copy_3" xmlns="http://www.w3.org/2000/svg" viewBox="0 0 24 24"><polygon points="7 2 7 5 4 5 4 3 3 3 3 4 2 4 2 2 7 2" fill="#009b00"/><rect x="16" y="4" width="1" height="1" fill="#009b00"/><polygon points="22 14 22 22 17 22 17 21 20 21 20 18 18 18 18 17 20 17 20 16 21 16 21 14 22 14" fill="#056405"/><polygon points="22 4 22 12 21 12 21 11 20 11 20 8 21 8 21 4 22 4" fill="#056405"/><rect x="17" y="9" width="1" height="2" fill="#056405"/><polygon points="20 18 20 21 17 21 17 19 14 19 14 21 17 21 17 22 6 22 6 21 10 21 10 20 9 20 9 19 7 19 7 18 8 18 8 17 6 17 6 16 4 16 4 13 3 13 3 11 2 11 2 6 3 6 3 7 5 7 5 10 6 10 6 12 7 12 7 14 8 14 8 15 9 15 9 17 10 17 10 19 11 19 11 20 12 20 12 19 13 19 13 17 14 17 14 16 18 16 18 18 20 18" fill="#009b00"/><rect x="14" y="19" width="3" height="2" fill="#056405"/><rect x="22" y="2" width="1" height="20"/><polygon points="20 8 20 11 21 11 21 12 22 12 22 14 21 14 21 16 20 16 20 17 18 17 18 14 17 14 17 15 16 15 16 13 17 13 17 11 18 11 18 9 17 9 17 6 18 6 18 4 20 4 20 2 22 2 22 4 21 4 21 8 20 8" fill="#009b00"/><rect x="16" y="12" width="1" height="1" fill="#056405"/><rect x="16" y="5" width="1" height="7"/><polygon points="18 14 18 16 14 16 14 15 15 15 15 14 16 14 16 15 17 15 17 14 18 14" fill="#056405"/><rect x="15" y="12" width="1" height="2"/><rect x="15" y="11" width="1" height="1" fill="#cb131c"/><rect x="15" y="4" width="1" height="1"/><rect x="2" y="22" width="20" height="1"/><rect x="14" y="14" width="1" height="1"/><polygon points="15 12 15 14 14 14 14 15 13 15 13 17 12 17 12 19 11 19 11 17 10 17 10 15 9 15 9 14 8 14 8 12 9 12 9 13 10 13 10 14 13 14 13 13 14 13 14 12 15 12" fill="#cb131c"/><rect x="13" y="15" width="1" height="2"/><rect x="12" y="17" width="1" height="2"/><rect x="11" y="19" width="1" height="1"/><rect x="10" y="17" width="1" height="2"/><polygon points="10 20 10 21 6 21 6 22 2 22 2 21 4 21 4 20 5 20 5 17 3 17 3 16 2 16 2 11 3 11 3 13 4 13 4 16 6 16 6 17 8 17 8 18 7 18 7 19 9 19 9 20 10 20" fill="#056405"/><rect x="9" y="15" width="1" height="2"/><rect x="8" y="14" width="1" height="1"/><rect x="8" y="3" width="7" height="1"/><rect x="7" y="12" width="1" height="2"/><rect x="7" y="11" width="1" height="1" fill="#cb131c"/><path d="m15,5v-1h-7v1h-1v6h1v1h1v1h1v1h3v-1h1v-1h1v-1h1v-6h-1Zm-1,6h-1v1h-3v-1h-1v-3h1v-1h3v1h1v3Z" fill="#ff1720"/><rect x="13" y="8" width="1" height="3"/><rect x="10" y="7" width="3" height="1"/><rect x="9" y="8" width="1" height="3"/><rect x="10" y="11" width="3" height="1"/><rect x="10" y="8" width="3" height="3" fill="#009b00"/><rect x="7" y="4" width="1" height="1"/><polygon points="20 2 20 4 18 4 18 6 17 6 17 4 15 4 15 3 8 3 8 4 7 4 7 2 20 2" fill="#056405"/><rect x="6" y="5" width="1" height="7"/><polygon points="6 5 6 10 5 10 5 7 3 7 3 6 2 6 2 4 3 4 3 3 4 3 4 5 6 5" fill="#056405"/><polygon points="5 17 5 20 4 20 4 21 2 21 2 16 3 16 3 17 5 17" fill="#009b00"/><rect x="2" y="1" width="20" height="1"/><rect x="1" y="2" width="1" height="20"/></svg>