<?xml version="1.0" encoding="UTF-8"?><svg id="Original_Reporting" xmlns="http://www.w3.org/2000/svg" viewBox="0 0 24 24"><polygon points="22 13 22 16 21 16 21 18 20 18 20 19 19 19 19 20 18 20 18 21 16 21 16 22 12 22 12 21 11 21 11 20 10 20 10 19 9 19 9 18 8 18 8 17 10 17 10 18 14 18 14 17 17 17 17 16 19 16 19 15 20 15 20 14 21 14 21 13 22 13" fill="#2b6da3"/><polygon points="22 8 22 12 21 12 21 11 20 11 20 10 19 10 19 9 17 9 17 8 14 8 14 7 10 7 10 8 7 8 7 9 5 9 5 10 4 10 4 11 3 11 3 12 2 12 2 8 3 8 3 6 4 6 4 5 5 5 5 4 6 4 6 3 8 3 8 2 16 2 16 3 18 3 18 4 19 4 19 5 20 5 20 6 21 6 21 8 22 8" fill="#51aaf4"/><rect x="20" y="13" width="1" height="1"/><rect x="20" y="11" width="1" height="1"/><rect x="19" y="14" width="1" height="1"/><rect x="19" y="10" width="1" height="1"/><rect x="17" y="9" width="2" height="1"/><rect x="17" y="15" width="2" height="1"/><rect x="14" y="8" width="3" height="1"/><rect x="14" y="16" width="3" height="1"/><polygon points="21 12 21 13 20 13 20 14 19 14 19 15 17 15 17 16 14 16 14 15 15 15 15 14 16 14 16 11 15 11 15 10 14 10 14 9 17 9 17 10 19 10 19 11 20 11 20 12 21 12" fill="#e5e5e5"/><rect x="12" y="11" width="2" height="3" fill="#152040"/><rect x="12" y="8" width="2" height="1" fill="#e5e5e5"/><rect x="10" y="7" width="4" height="1"/><rect x="12" y="16" width="2" height="1" fill="#e5e5e5"/><polygon points="16 11 16 14 15 14 15 15 14 15 14 16 12 16 12 14 14 14 14 11 12 11 12 9 14 9 14 10 15 10 15 11 16 11" fill="#33ccd8"/><rect x="10" y="17" width="4" height="1"/><rect x="10" y="11" width="2" height="3" fill="#283d7d"/><rect x="10" y="16" width="2" height="1" fill="#fff"/><polygon points="10 11 10 14 12 14 12 16 10 16 10 15 9 15 9 14 8 14 8 11 9 11 9 10 10 10 10 9 12 9 12 11 10 11" fill="#38e4f1"/><rect x="10" y="8" width="2" height="1" fill="#fff"/><rect x="7" y="8" width="3" height="1"/><polygon points="8 11 8 14 9 14 9 15 10 15 10 16 7 16 7 15 5 15 5 14 4 14 4 13 3 13 3 12 4 12 4 11 5 11 5 10 7 10 7 9 10 9 10 10 9 10 9 11 8 11" fill="#fff"/><rect x="7" y="16" width="3" height="1"/><rect x="5" y="9" width="2" height="1"/><rect x="5" y="15" width="2" height="1"/><rect x="4" y="14" width="1" height="1"/><rect x="4" y="10" width="1" height="1"/><polygon points="12 21 12 22 8 22 8 21 6 21 6 20 5 20 5 19 4 19 4 18 3 18 3 16 2 16 2 13 3 13 3 14 4 14 4 15 5 15 5 16 7 16 7 17 8 17 8 18 9 18 9 19 10 19 10 20 11 20 11 21 12 21" fill="#51aaf4"/><rect x="3" y="13" width="1" height="1"/><rect x="3" y="11" width="1" height="1"/><rect x="2" y="6" width="1" height="2"/><rect x="5" y="3" width="1" height="1"/><rect x="2" y="16" width="1" height="2"/><polygon points="3 12 3 13 2 13 2 16 1 16 1 8 2 8 2 12 3 12"/><rect x="3" y="18" width="1" height="1"/><rect x="3" y="5" width="1" height="1"/><rect x="4" y="19" width="1" height="1"/><rect x="4" y="4" width="1" height="1"/><rect x="5" y="20" width="1" height="1"/><rect x="6" y="2" width="2" height="1"/><rect x="8" y="1" width="8" height="1"/><rect x="6" y="21" width="2" height="1"/><rect x="16" y="21" width="2" height="1"/><rect x="8" y="22" width="8" height="1"/><rect x="16" y="2" width="2" height="1"/><rect x="21" y="16" width="1" height="2"/><rect x="20" y="18" width="1" height="1"/><polygon points="23 8 23 16 22 16 22 13 21 13 21 12 22 12 22 8 23 8"/><rect x="18" y="20" width="1" height="1"/><rect x="20" y="5" width="1" height="1"/><rect x="21" y="6" width="1" height="2"/><rect x="19" y="4" width="1" height="1"/><rect x="18" y="3" width="1" height="1"/><rect x="19" y="19" width="1" height="1"/></svg>