<?xml version="1.0" encoding="UTF-8"?><svg id="HODL_copy_16" xmlns="http://www.w3.org/2000/svg" viewBox="0 0 24 24"><rect x="22" y="10" width="1" height="8"/><rect x="19" y="19" width="2" height="1"/><rect x="21" y="18" width="1" height="1"/><rect x="21" y="10" width="1" height="8" fill="#00b800"/><rect x="21" y="7" width="1" height="3"/><rect x="20" y="7" width="1" height="3" fill="#00b800"/><rect x="20" y="5" width="1" height="2"/><rect x="19" y="18" width="2" height="1" fill="#00b800"/><polygon points="21 10 21 18 19 18 19 17 18 17 18 11 19 11 19 10 21 10"/><rect x="19" y="5" width="1" height="2" fill="#00b800"/><rect x="19" y="4" width="1" height="1"/><rect x="18" y="18" width="1" height="1"/><rect x="18" y="4" width="1" height="1" fill="#00b800"/><rect x="18" y="3" width="1" height="1"/><rect x="17" y="19" width="1" height="1"/><rect x="17" y="3" width="1" height="1" fill="#00b800"/><rect x="17" y="2" width="1" height="1"/><polygon points="17 20 17 21 16 21 16 22 15 22 15 20 17 20"/><rect x="16" y="15" width="1" height="3" fill="#fff"/><rect x="8" y="18" width="8" height="1" fill="#fff"/><rect x="15" y="2" width="2" height="1" fill="#00b800"/><polygon points="9 22 8 22 8 21 7 21 7 20 9 20 9 22"/><rect x="9" y="22" width="6" height="1"/><rect x="11" y="19" width="2" height="1"/><polygon points="15 21 15 22 9 22 9 21 10 21 10 20 14 20 14 21 15 21" fill="#fff"/><rect x="7" y="15" width="1" height="3" fill="#fff"/><rect x="7" y="2" width="2" height="1" fill="#00b800"/><rect x="7" y="1" width="10" height="1"/><rect x="6" y="19" width="1" height="1"/><polygon points="20 7 20 10 19 10 19 8 18 8 18 6 17 6 17 5 16 5 16 4 8 4 8 5 7 5 7 6 6 6 6 8 5 8 5 10 4 10 4 7 5 7 5 5 6 5 6 4 7 4 7 3 9 3 9 2 15 2 15 3 17 3 17 4 18 4 18 5 19 5 19 7 20 7" fill="#fff"/><rect x="6" y="3" width="1" height="1" fill="#00b800"/><rect x="6" y="2" width="1" height="1"/><rect x="5" y="18" width="1" height="1"/><path d="m18,8v-2h-1v-1h-1v-1h-8v1h-1v1h-1v2h-1v3h1v6h-1v1h1v1h1v1h2v1h1v-1h1v-1h-3v-1h-1v-3h1v3h8v-3h1v3h-1v1h-3v1h1v1h1v-1h2v-1h1v-1h1v-1h-1v-6h1v-3h-1Zm-3,2h-2v1h2v1h-2v1h2v1h-2v1h2v1h-1v1h-4v-1h-1v-1h2v-1h-2v-1h2v-1h-2v-1h2v-1h-2v-1h1v-1h4v1h1v1Z" fill="#00b800"/><rect x="11" y="15" width="2" height="1" fill="#00b800"/><rect x="11" y="13" width="2" height="1" fill="#00b800"/><polygon points="13 10 13 11 15 11 15 12 13 12 13 13 11 13 11 12 9 12 9 11 11 11 11 10 9 10 9 9 10 9 10 8 14 8 14 9 15 9 15 10 13 10" fill="#fff"/><rect x="9" y="13" width="2" height="1" fill="#fff"/><rect x="13" y="13" width="2" height="1" fill="#fff"/><rect x="11" y="14" width="2" height="1" fill="#fff"/><polygon points="15 15 15 16 14 16 14 17 10 17 10 16 9 16 9 15 11 15 11 16 13 16 13 15 15 15" fill="#fff"/><rect x="5" y="4" width="1" height="1" fill="#00b800"/><rect x="5" y="3" width="1" height="1"/><polygon points="6 11 6 17 5 17 5 18 3 18 3 10 5 10 5 11 6 11"/><rect x="4" y="5" width="1" height="2" fill="#00b800"/><rect x="4" y="4" width="1" height="1"/><rect x="3" y="19" width="2" height="1"/><rect x="3" y="18" width="2" height="1" fill="#00b800"/><rect x="3" y="7" width="1" height="3" fill="#00b800"/><rect x="3" y="5" width="1" height="2"/><rect x="2" y="18" width="1" height="1"/><rect x="2" y="10" width="1" height="8" fill="#00b800"/><rect x="2" y="7" width="1" height="3"/><rect x="1" y="10" width="1" height="8"/></svg>