<?xml version="1.0" encoding="UTF-8"?><svg id="HODL_copy_15" xmlns="http://www.w3.org/2000/svg" viewBox="0 0 24 24"><rect x="20" y="14" width="1" height="3" fill="#c9fbc9"/><polygon points="19 12 19 19 18 19 18 18 14 18 14 14 17 14 17 13 18 13 18 12 19 12" fill="#c9fbc9"/><rect x="14" y="19" width="1" height="2" fill="#c9fbc9"/><rect x="13" y="18" width="1" height="1" fill="#c9fbc9"/><path d="m10,9V3H3v16h9v-1h-1v-1h-1v-3h1v-1h4v-4h-5Zm-6-4h5v1h-5v-1Zm0,2h5v1h-5v-1Zm0,2h5v1h-5v-1Zm4,7h-4v-1h4v1Zm0-2h-4v-1h4v1Zm3-2h-7v-1h7v1Z" fill="#fff"/><polygon points="15 7 15 8 11 8 11 4 12 4 12 5 13 5 13 6 14 6 14 7 15 7" fill="#fff"/><polygon points="14 13 14 18 11 18 11 17 13 17 13 14 11 14 11 13 14 13" fill="#007d00"/><rect x="10" y="14" width="1" height="3" fill="#007d00"/><rect x="11" y="14" width="2" height="3" fill="#0cc00c"/><polygon points="18 18 18 19 16 19 16 22 13 22 13 20 12 20 12 18 13 18 13 19 14 19 14 21 15 21 15 19 14 19 14 18 18 18" fill="#0cc00c"/><polygon points="20 14 20 17 21 17 21 18 20 18 20 20 18 20 18 19 19 19 19 12 18 12 18 11 20 11 20 13 21 13 21 14 20 14" fill="#0cc00c"/><rect x="21" y="14" width="1" height="3" fill="#0cc00c"/><polygon points="18 12 18 13 17 13 17 14 14 14 14 13 16 13 16 12 18 12" fill="#0cc00c"/><rect x="21" y="17" width="1" height="1"/><rect x="21" y="13" width="1" height="1"/><rect x="15" y="6" width="1" height="1"/><rect x="14" y="5" width="1" height="1"/><rect x="13" y="4" width="1" height="1"/><rect x="12" y="3" width="1" height="1"/><rect x="11" y="2" width="1" height="1"/><rect x="3" y="1" width="8" height="1"/><rect x="2" y="2" width="1" height="1"/><rect x="1" y="3" width="1" height="16"/><rect x="2" y="19" width="1" height="1"/><polygon points="13 20 13 22 12 22 12 21 3 21 3 20 13 20"/><rect x="13" y="22" width="3" height="1"/><polygon points="18 11 18 12 16 12 16 7 17 7 17 11 18 11"/><rect x="18" y="10" width="2" height="1"/><rect x="18" y="20" width="2" height="1"/><polygon points="18 19 18 20 17 20 17 22 16 22 16 19 18 19"/><rect x="22" y="14" width="1" height="3"/><rect x="20" y="18" width="1" height="2"/><rect x="20" y="11" width="1" height="2"/><rect x="3" y="19" width="9" height="1" fill="#a6a6a6"/><rect x="2" y="3" width="1" height="16" fill="#a6a6a6"/><rect x="4" y="15" width="4" height="1" fill="#a6a6a6"/><rect x="4" y="13" width="4" height="1" fill="#a6a6a6"/><rect x="4" y="11" width="7" height="1" fill="#a6a6a6"/><rect x="4" y="9" width="5" height="1" fill="#a6a6a6"/><rect x="4" y="7" width="5" height="1" fill="#a6a6a6"/><rect x="4" y="5" width="5" height="1" fill="#a6a6a6"/><polygon points="16 7 16 13 15 13 15 9 10 9 10 3 3 3 3 2 11 2 11 3 12 3 12 4 11 4 11 8 15 8 15 7 16 7" fill="#a6a6a6"/><rect x="12" y="4" width="1" height="1" fill="#a6a6a6"/><rect x="13" y="5" width="1" height="1" fill="#a6a6a6"/><rect x="14" y="6" width="1" height="1" fill="#a6a6a6"/></svg>