<?xml version="1.0" encoding="UTF-8"?><svg id="HODL_copy_14" xmlns="http://www.w3.org/2000/svg" viewBox="0 0 24 24"><path d="m18,8v-1h-1v-1h-1v-1h-2v1h-1v1h-1v1h-1v1h-1v1h-1v1h-1v1h-1v3h1v-1h1v-1h2v2h-1v1h-1v1h3v-1h1v-1h1v-1h1v-1h1v-1h1v-1h1v-1h1v-2h-1Zm-1,2h-1v1h-2v-1h-1v-2h1v-1h2v1h1v2Z" fill="#d0edf4"/><rect x="6" y="15" width="1" height="1" fill="#ffd100"/><polygon points="8 18 8 20 6 20 6 21 3 21 3 18 4 18 4 16 6 16 6 17 5 17 5 19 7 19 7 18 8 18" fill="#ffd100"/><rect x="8" y="17" width="1" height="1" fill="#ffd100"/><polygon points="17 8 17 10 16 10 16 11 14 11 14 10 13 10 13 8 14 8 14 7 16 7 16 8 17 8" fill="#1a6a8a"/><polygon points="11 17 11 19 10 19 10 20 9 20 9 21 7 21 7 22 2 22 2 17 3 17 3 15 4 15 4 14 5 14 5 13 7 13 7 15 6 15 6 16 4 16 4 18 3 18 3 21 6 21 6 20 8 20 8 18 9 18 9 17 11 17" fill="#ef9520"/><polygon points="9 10 9 11 8 11 8 12 7 12 7 13 5 13 5 14 2 14 2 12 3 12 3 11 4 11 4 10 9 10" fill="#bc131a"/><polygon points="14 15 14 20 13 20 13 21 12 21 12 22 10 22 10 19 11 19 11 17 12 17 12 16 13 16 13 15 14 15" fill="#bc131a"/><polygon points="11 13 11 15 10 15 10 16 9 16 9 17 8 17 8 18 7 18 7 19 5 19 5 17 6 17 6 16 7 16 7 15 8 15 8 14 9 14 9 13 11 13" fill="#bc131a"/><polygon points="22 2 22 7 21 7 21 8 20 8 20 9 19 9 19 8 18 8 18 7 17 7 17 6 16 6 16 5 15 5 15 4 16 4 16 3 17 3 17 2 22 2" fill="#bc131a"/><rect x="11" y="7" width="1" height="1"/><rect x="12" y="6" width="1" height="1"/><rect x="21" y="7" width="1" height="1"/><rect x="20" y="8" width="1" height="1"/><rect x="19" y="9" width="1" height="1"/><rect x="18" y="10" width="1" height="1"/><rect x="17" y="11" width="1" height="1"/><rect x="16" y="12" width="1" height="1"/><rect x="15" y="13" width="1" height="1"/><rect x="2" y="11" width="1" height="1"/><rect x="3" y="10" width="1" height="1"/><rect x="1" y="12" width="1" height="2"/><polygon points="4 14 4 15 3 15 3 17 2 17 2 14 4 14"/><polygon points="7 22 7 23 1 23 1 17 2 17 2 22 7 22"/><rect x="4" y="9" width="6" height="1"/><rect x="10" y="22" width="2" height="1"/><polygon points="10 20 10 22 7 22 7 21 9 21 9 20 10 20"/><rect x="10" y="8" width="1" height="1"/><rect x="12" y="21" width="1" height="1"/><rect x="13" y="5" width="1" height="1"/><rect x="13" y="20" width="1" height="1"/><rect x="15" y="3" width="1" height="1"/><rect x="14" y="4" width="1" height="1"/><rect x="14" y="14" width="1" height="6"/><rect x="16" y="2" width="1" height="1"/><polygon points="23 1 23 7 22 7 22 2 17 2 17 1 23 1"/></svg>