<?xml version="1.0" encoding="UTF-8"?><svg id="HODL_copy_13" xmlns="http://www.w3.org/2000/svg" viewBox="0 0 24 24"><polygon points="22 4 22 5 5 5 5 4 20 4 20 2 21 2 21 4 22 4"/><rect x="2" y="1" width="18" height="1"/><path d="m15,19v3h7v-3h-7Zm6,2h-5v-1h5v1Z" fill="#ffc400"/><rect x="16" y="20" width="5" height="1"/><rect x="22" y="19" width="1" height="3"/><rect x="15" y="22" width="7" height="1"/><rect x="15" y="18" width="7" height="1"/><polygon points="15 19 15 22 14 22 14 21 5 21 5 20 14 20 14 19 15 19"/><polygon points="23 5 23 18 22 18 22 10 5 10 5 20 4 20 4 18 2 18 2 17 4 17 4 7 2 7 2 17 1 17 1 2 2 2 2 6 4 6 4 5 5 5 5 9 22 9 22 5 23 5"/><rect x="6" y="11" width="15" height="1"/><rect x="6" y="13" width="15" height="1"/><rect x="6" y="17" width="7" height="1"/><rect x="6" y="15" width="15" height="1"/><path d="m5,10v10h9v-1h1v-1h7v-8H5Zm1,7h7v1h-7v-1Zm15-1H6v-1h15v1Zm0-2H6v-1h15v1Zm0-2H6v-1h15v1Z" fill="#fff"/><rect x="2" y="7" width="2" height="10" fill="#fff"/><polygon points="20 2 20 4 5 4 5 5 4 5 4 6 2 6 2 2 20 2" fill="#266190"/><rect x="19" y="6" width="2" height="2"/><rect x="16" y="6" width="2" height="2"/><rect x="13" y="6" width="2" height="2"/><path d="m5,5v4h17v-4H5Zm8,3v-2h2v2h-2Zm3,0v-2h2v2h-2Zm5,0h-2v-2h2v2Z" fill="#3b9ff3"/></svg>