<?xml version="1.0" encoding="UTF-8"?><svg id="HODL_copy_12" xmlns="http://www.w3.org/2000/svg" viewBox="0 0 24 24"><rect x="2" y="22" width="15" height="1"/><rect x="1" y="2" width="1" height="20"/><rect x="2" y="1" width="15" height="1"/><rect x="21" y="9" width="1" height="1"/><rect x="20" y="10" width="1" height="1"/><rect x="20" y="6" width="2" height="1"/><rect x="22" y="7" width="1" height="2"/><rect x="19" y="11" width="1" height="1"/><rect x="19" y="10" width="1" height="1" fill="#bc703c"/><rect x="19" y="9" width="1" height="1"/><polygon points="22 7 22 9 21 9 21 10 20 10 20 9 19 9 19 8 20 8 20 7 22 7" fill="#c3332f"/><rect x="19" y="7" width="1" height="1"/><rect x="18" y="12" width="1" height="1"/><rect x="18" y="11" width="1" height="1" fill="#bc703c"/><polygon points="19 8 19 9 18 9 18 10 17 10 17 2 18 2 18 8 19 8"/><polygon points="18 13 18 22 17 22 17 15 16 15 16 14 17 14 17 13 18 13"/><rect x="17" y="12" width="1" height="1" fill="#bc703c"/><rect x="16" y="13" width="1" height="1" fill="#bc703c"/><rect x="16" y="10" width="1" height="1"/><rect x="15" y="15" width="1" height="1"/><rect x="15" y="14" width="1" height="1" fill="#bc703c"/><rect x="15" y="11" width="1" height="1"/><rect x="14" y="16" width="1" height="1"/><rect x="14" y="15" width="1" height="1" fill="#bc703c"/><rect x="14" y="12" width="1" height="1"/><path d="m3,3v18h6v-1h1v-1h1v-4h1v-1h1v-1h1v-1h1v-1h1V3H3Zm5,3h1v-1h1v1h1v1h-1v1h-1v-1h-1v-1Zm-4,0h1v-1h1v1h1v1h-1v1h-1v-1h-1v-1Zm5,11h-5v-1h5v1Zm1-3h-6v-1h6v1Zm3-3H4v-1h9v1Zm2-4h-1v1h-1v-1h-1v-1h1v-1h1v1h1v1Z" fill="#f8f8f8"/><polygon points="14 17 14 18 11 18 11 15 12 15 12 17 14 17"/><rect x="13" y="16" width="1" height="1" fill="#bc703c"/><rect x="13" y="13" width="1" height="1"/><polygon points="15 6 15 7 14 7 14 8 13 8 13 7 12 7 12 6 13 6 13 5 14 5 14 6 15 6" fill="#ffd100"/><polygon points="19 9 19 11 18 11 18 12 17 12 17 13 16 13 16 14 15 14 15 15 14 15 14 16 13 16 13 17 12 17 12 15 13 15 13 14 14 14 14 13 15 13 15 12 16 12 16 11 17 11 17 10 18 10 18 9 19 9" fill="#dbc693"/><rect x="12" y="14" width="1" height="1"/><polygon points="16 18 16 21 9 21 9 20 10 20 10 19 15 19 15 18 16 18" fill="#dad9d9"/><polygon points="11 6 11 7 10 7 10 8 9 8 9 7 8 7 8 6 9 6 9 5 10 5 10 6 11 6" fill="#ffd100"/><rect x="4" y="16" width="5" height="1" fill="#a6a6a6"/><polygon points="7 6 7 7 6 7 6 8 5 8 5 7 4 7 4 6 5 6 5 5 6 5 6 6 7 6" fill="#ffd100"/><rect x="4" y="13" width="6" height="1" fill="#a6a6a6"/><rect x="4" y="10" width="9" height="1" fill="#a6a6a6"/><polygon points="16 10 16 3 3 3 3 21 16 21 16 18 15 18 15 19 11 19 11 18 14 18 14 17 15 17 15 16 16 16 16 15 17 15 17 22 2 22 2 2 17 2 17 10 16 10" fill="#a6a6a6"/></svg>