<?xml version="1.0" encoding="UTF-8"?><svg id="HODL_copy_11" xmlns="http://www.w3.org/2000/svg" viewBox="0 0 24 24"><polygon points="20 7 20 8 18 8 18 7 16 7 16 8 14 8 14 7 15 7 15 6 19 6 19 7 20 7" fill="#914814"/><polygon points="12 6 12 7 10 7 10 6 7 6 7 7 5 7 5 6 6 6 6 5 11 5 11 6 12 6" fill="#914814"/><rect x="8" y="8" width="2" height="2" fill="#914814"/><rect x="14" y="9" width="2" height="2" fill="#914814"/><rect x="7" y="17" width="3" height="2" fill="#fffc00"/><path d="m16,7v1h-2v-1h1v-1h1v-1h-1v-1h-6v1h2v1h1v1h-2v-1h-3v1h-2v5h1v1h1v1h2v-1h5v1h1v1h2v-2h1v-6h-2Zm-6,3h-2v-2h2v2Zm6,1h-2v-2h2v2Z" fill="#fffc00"/><rect x="4" y="18" width="1" height="1" fill="#ef9520"/><polygon points="4 6 4 18 3 18 3 16 2 16 2 8 3 8 3 6 4 6" fill="#ef9520"/><rect x="19" y="5" width="1" height="1" fill="#ef9520"/><rect x="18" y="4" width="1" height="1" fill="#ef9520"/><rect x="16" y="3" width="2" height="1" fill="#ef9520"/><rect x="8" y="2" width="8" height="1" fill="#ef9520"/><rect x="6" y="3" width="2" height="1" fill="#ef9520"/><rect x="5" y="4" width="1" height="1" fill="#ef9520"/><rect x="4" y="5" width="1" height="1" fill="#ef9520"/><rect x="5" y="5" width="1" height="1" fill="#ffd100"/><polygon points="19 5 19 6 16 6 16 5 15 5 15 4 9 4 9 5 6 5 6 4 8 4 8 3 16 3 16 4 18 4 18 5 19 5" fill="#ffd100"/><rect x="19" y="6" width="1" height="1" fill="#ffd100"/><polygon points="20 8 20 16 19 16 19 18 18 18 18 19 16 19 16 20 12 20 12 19 14 19 14 18 15 18 15 17 14 17 14 16 7 16 7 15 6 15 6 14 4 14 4 6 5 6 5 12 6 12 6 13 7 13 7 14 8 14 8 15 10 15 10 14 13 14 13 15 17 15 17 13 18 13 18 8 20 8" fill="#ffd100"/><rect x="22" y="8" width="1" height="8"/><rect x="21" y="16" width="1" height="2"/><rect x="3" y="5" width="1" height="1"/><rect x="2" y="6" width="1" height="2"/><rect x="6" y="2" width="2" height="1"/><rect x="16" y="2" width="2" height="1"/><rect x="8" y="1" width="8" height="1"/><rect x="21" y="6" width="1" height="2"/><rect x="20" y="18" width="1" height="1"/><polygon points="22 8 22 16 21 16 21 18 20 18 20 19 19 19 19 20 18 20 18 21 16 21 16 22 11 22 11 21 12 21 12 20 16 20 16 19 18 19 18 18 19 18 19 16 20 16 20 6 21 6 21 8 22 8" fill="#ef9520"/><rect x="20" y="5" width="1" height="1"/><rect x="19" y="19" width="1" height="1"/><rect x="19" y="4" width="1" height="1"/><rect x="18" y="20" width="1" height="1"/><rect x="18" y="3" width="1" height="1"/><rect x="16" y="21" width="2" height="1"/><rect x="14" y="17" width="1" height="1" fill="#914814"/><rect x="12" y="18" width="2" height="1" fill="#914814"/><rect x="12" y="17" width="2" height="1" fill="#ef9520"/><rect x="7" y="16" width="7" height="1" fill="#914814"/><rect x="11" y="19" width="1" height="2" fill="#914814"/><rect x="10" y="17" width="2" height="1" fill="#ffd100"/><rect x="7" y="19" width="3" height="1" fill="#ffd100"/><polygon points="15 14 15 15 13 15 13 14 10 14 10 15 8 15 8 14 9 14 9 13 14 13 14 14 15 14" fill="#914814"/><rect x="6" y="22" width="10" height="1"/><rect x="6" y="21" width="5" height="1" fill="#914814"/><polygon points="12 18 12 19 11 19 11 21 6 21 6 18 7 18 7 20 10 20 10 18 12 18" fill="#ef9520"/><rect x="6" y="16" width="1" height="2" fill="#ffd100"/><rect x="6" y="15" width="1" height="1" fill="#914814"/><rect x="5" y="21" width="1" height="1"/><polygon points="5 15 5 17 6 17 6 21 5 21 5 18 4 18 4 14 6 14 6 15 5 15" fill="#914814"/><rect x="5" y="15" width="1" height="2" fill="#ef9520"/><rect x="5" y="3" width="1" height="1"/><rect x="4" y="19" width="1" height="2"/><rect x="4" y="4" width="1" height="1"/><rect x="3" y="18" width="1" height="1"/><rect x="2" y="16" width="1" height="2"/><rect x="1" y="8" width="1" height="8"/></svg>