<?xml version="1.0" encoding="UTF-8"?><svg id="HODL_copy_10" xmlns="http://www.w3.org/2000/svg" viewBox="0 0 24 24"><rect x="14" y="10" width="2" height="1" fill="#fff"/><rect x="12" y="11" width="1" height="1" fill="#fff"/><polygon points="22 6 22 22 21 22 21 8 4 8 4 7 21 7 21 6 22 6"/><rect x="4" y="22" width="17" height="1"/><rect x="3" y="21" width="1" height="1"/><polygon points="4 6 4 7 3 7 3 21 2 21 2 2 3 2 3 6 4 6"/><polygon points="22 1 22 3 21 3 21 2 3 2 3 1 22 1"/><polygon points="21 3 21 6 20 6 20 5 5 5 5 4 20 4 20 3 21 3"/><polygon points="5 4 5 5 20 5 20 6 21 6 21 7 4 7 4 6 3 6 3 2 21 2 21 3 20 3 20 4 5 4" fill="#d0edf4"/><path d="m4,8v-1h-1v14h1v1h17v-14H4Zm14,8h-1v2h-1v1h-2v1h-3v-1h-2v-1h-1v-2h-1v-3h1v-2h1v-1h2v-1h3v1h2v1h1v2h1v3Z" fill="#7dc2f9"/><path d="m16,13v-2h-2v-1h-3v1h-2v2h-1v3h1v2h2v1h3v-1h2v-2h1v-3h-1Zm-3,5h-1v-5h1v5Zm0-6h-1v-1h1v1Z" fill="#3f9eec"/><rect x="12" y="13" width="1" height="5" fill="#fff"/><rect x="11" y="9" width="3" height="1" fill="#fff"/><rect x="9" y="10" width="2" height="1" fill="#fff"/><rect x="8" y="11" width="1" height="2" fill="#fff"/><rect x="7" y="13" width="1" height="3" fill="#fff"/><rect x="8" y="16" width="1" height="2" fill="#fff"/><rect x="9" y="18" width="2" height="1" fill="#fff"/><rect x="11" y="19" width="3" height="1" fill="#fff"/><rect x="14" y="18" width="2" height="1" fill="#fff"/><rect x="16" y="16" width="1" height="2" fill="#fff"/><rect x="17" y="13" width="1" height="3" fill="#fff"/><rect x="16" y="11" width="1" height="2" fill="#fff"/></svg>