<svg id="Check_Badge" data-name="Check Badge" xmlns="http://www.w3.org/2000/svg" viewBox="0 0 24 24"><defs><style>.cls-1{fill:#1a73e8;}.cls-2{fill:#074f9e;}.cls-3{fill:#fff;}</style></defs><path class="cls-1" d="M22,10V9H21V5H20V4H19V3H15V2H14V1H10V2H9V3H5V4H4V5H3V9H2v1H1v4H2v1H3v4H4v1H5v1H9v1h1v1h4V22h1V21h4V20h1V19h1V15h1V14h1V10ZM7,11H8V10H9v1h1v1h2V11h1V10h1V9h1V8h1V9h1v2H16v1H15v1H14v1H13v1H12v1H10V15H9V14H8V13H7Z"/><path class="cls-2" d="M22,10V9H21V5H20V4H19V3H15V2H14V1H10V2H9V3H5V4H4V5H3V9H2v1H1v4H2v1H3v4H4v1H5v1H9v1h1v1h4V22h1V21h4V20h1V19h1V15h1V14h1V10Zm-1,4H20v1H19v4H15v1H14v1H10V20H9V19H5V15H4V14H3V10H4V9H5V5H9V4h1V3h4V4h1V5h4V9h1v1h1Z"/><polygon class="cls-3" points="17 9 17 11 16 11 16 12 15 12 15 13 14 13 14 14 13 14 13 15 12 15 12 16 10 16 10 15 9 15 9 14 8 14 8 13 7 13 7 11 8 11 8 10 9 10 9 11 10 11 10 12 12 12 12 11 13 11 13 10 14 10 14 9 15 9 15 8 16 8 16 9 17 9"/><rect x="15" y="3" width="4" height="1"/><rect x="21" y="14" width="1" height="1"/><rect x="22" y="10" width="1" height="4"/><rect x="10" y="22" width="4" height="1"/><rect x="20" y="15" width="1" height="4"/><rect x="2" y="9" width="1" height="1"/><rect x="3" y="5" width="1" height="4"/><rect x="4" y="19" width="1" height="1"/><rect x="15" y="20" width="4" height="1"/><rect x="5" y="3" width="4" height="1"/><rect x="2" y="14" width="1" height="1"/><rect x="3" y="15" width="1" height="4"/><rect x="9" y="21" width="1" height="1"/><rect x="4" y="4" width="1" height="1"/><rect x="10" y="1" width="4" height="1"/><rect x="19" y="4" width="1" height="1"/><rect x="19" y="19" width="1" height="1"/><rect x="5" y="20" width="4" height="1"/><rect x="20" y="5" width="1" height="4"/><rect x="1" y="10" width="1" height="4"/><rect x="14" y="2" width="1" height="1"/><rect x="21" y="9" width="1" height="1"/><rect x="9" y="2" width="1" height="1"/><rect x="14" y="21" width="1" height="1"/><rect class="cls-2" x="8" y="14" width="1" height="1"/><rect class="cls-2" x="7" y="13" width="1" height="1"/><rect class="cls-2" x="6" y="11" width="1" height="2"/><rect class="cls-2" x="7" y="10" width="1" height="1"/><rect class="cls-2" x="8" y="9" width="1" height="1"/><rect class="cls-2" x="9" y="10" width="1" height="1"/><rect class="cls-2" x="10" y="11" width="2" height="1"/><rect class="cls-2" x="12" y="10" width="1" height="1"/><rect class="cls-2" x="13" y="9" width="1" height="1"/><rect class="cls-2" x="14" y="8" width="1" height="1"/><rect class="cls-2" x="15" y="7" width="1" height="1"/><rect class="cls-2" x="16" y="8" width="1" height="1"/><rect class="cls-2" x="9" y="15" width="1" height="1"/><rect class="cls-2" x="10" y="16" width="2" height="1"/><rect class="cls-2" x="12" y="15" width="1" height="1"/><rect class="cls-2" x="13" y="14" width="1" height="1"/><rect class="cls-2" x="14" y="13" width="1" height="1"/><rect class="cls-2" x="15" y="12" width="1" height="1"/><rect class="cls-2" x="17" y="9" width="1" height="2"/><rect class="cls-2" x="16" y="11" width="1" height="1"/></svg>