<?xml version="1.0" encoding="UTF-8"?><svg id="HODL_copy_9" xmlns="http://www.w3.org/2000/svg" viewBox="0 0 24 24"><rect x="8" y="8" width="4" height="1" fill="#835331"/><rect x="12" y="7" width="2" height="1" fill="#835331"/><rect x="7" y="6" width="1" height="2" fill="#5f2f0c"/><rect x="22" y="6" width="1" height="8"/><rect x="21" y="14" width="1" height="1"/><rect x="21" y="13" width="1" height="1" fill="#835331"/><rect x="21" y="5" width="1" height="1"/><rect x="20" y="15" width="1" height="1"/><rect x="20" y="12" width="1" height="1" fill="#835331"/><rect x="20" y="4" width="1" height="1"/><rect x="19" y="16" width="1" height="1"/><rect x="19" y="15" width="1" height="1" fill="#835331"/><rect x="19" y="11" width="1" height="1" fill="#835331"/><rect x="19" y="3" width="1" height="1"/><rect x="18" y="17" width="1" height="1"/><rect x="18" y="14" width="1" height="1" fill="#835331"/><rect x="18" y="10" width="1" height="1" fill="#835331"/><rect x="5" y="2" width="14" height="1"/><rect x="17" y="18" width="1" height="1"/><rect x="17" y="17" width="1" height="1" fill="#835331"/><rect x="17" y="13" width="1" height="1" fill="#835331"/><polygon points="20 6 20 7 19 7 19 9 18 9 18 10 17 10 17 9 16 9 16 8 17 8 17 7 18 7 18 6 20 6" fill="#835331"/><rect x="17" y="6" width="1" height="1" fill="#5f2f0c"/><rect x="16" y="19" width="1" height="1"/><rect x="16" y="16" width="1" height="1" fill="#835331"/><rect x="16" y="12" width="1" height="1" fill="#835331"/><rect x="15" y="20" width="1" height="1"/><rect x="15" y="19" width="1" height="1" fill="#835331"/><rect x="15" y="15" width="1" height="1" fill="#835331"/><rect x="15" y="7" width="2" height="1" fill="#5f2f0c"/><rect x="14" y="18" width="1" height="1" fill="#835331"/><rect x="14" y="14" width="1" height="1" fill="#835331"/><rect x="13" y="21" width="2" height="1"/><polygon points="15 19 15 21 13 21 13 20 12 20 12 19 13 19 13 18 14 18 14 19 15 19" fill="#fecf8f"/><rect x="13" y="17" width="1" height="1" fill="#835331"/><rect x="12" y="18" width="1" height="1" fill="#835331"/><rect x="12" y="6" width="3" height="1" fill="#5f2f0c"/><rect x="11" y="20" width="2" height="1"/><rect x="11" y="19" width="1" height="1" fill="#835331"/><polygon points="22 6 22 13 21 13 21 12 20 12 20 11 19 11 19 10 18 10 18 9 19 9 19 7 20 7 20 6 17 6 17 7 15 7 15 6 12 6 12 8 8 8 8 6 9 6 9 5 10 5 10 4 12 4 12 3 19 3 19 4 20 4 20 5 21 5 21 6 22 6" fill="#bc703c"/><rect x="10" y="20" width="1" height="1" fill="#835331"/><rect x="10" y="16" width="1" height="1" fill="#5f2f0c"/><rect x="10" y="3" width="2" height="1" fill="#5f2f0c"/><rect x="9" y="21" width="2" height="1"/><rect x="9" y="17" width="1" height="1" fill="#5f2f0c"/><rect x="9" y="4" width="1" height="1" fill="#5f2f0c"/><rect x="8" y="20" width="1" height="1"/><polygon points="13 16 13 18 12 18 12 19 11 19 11 20 10 20 10 21 9 21 9 20 8 20 8 19 9 19 9 18 10 18 10 17 11 17 11 16 13 16" fill="#bc703c"/><rect x="8" y="18" width="1" height="1" fill="#5f2f0c"/><rect x="8" y="14" width="1" height="1" fill="#5f2f0c"/><rect x="8" y="5" width="1" height="1" fill="#5f2f0c"/><rect x="7" y="19" width="1" height="1"/><polygon points="11 14 11 16 10 16 10 17 9 17 9 18 8 18 8 19 7 19 7 18 6 18 6 17 7 17 7 16 8 16 8 15 9 15 9 14 11 14" fill="#bc703c"/><rect x="7" y="15" width="1" height="1" fill="#5f2f0c"/><rect x="6" y="18" width="1" height="1"/><rect x="6" y="16" width="1" height="1" fill="#5f2f0c"/><rect x="6" y="12" width="1" height="1" fill="#5f2f0c"/><rect x="5" y="17" width="1" height="1"/><rect x="5" y="13" width="1" height="1" fill="#5f2f0c"/><rect x="4" y="16" width="1" height="1"/><polygon points="9 12 9 14 8 14 8 15 7 15 7 16 6 16 6 17 5 17 5 16 4 16 4 15 5 15 5 14 6 14 6 13 7 13 7 12 9 12" fill="#bc703c"/><rect x="4" y="14" width="1" height="1" fill="#5f2f0c"/><rect x="4" y="3" width="1" height="1"/><rect x="3" y="15" width="1" height="1"/><polygon points="7 10 7 12 6 12 6 13 5 13 5 14 4 14 4 15 3 15 3 14 2 14 2 13 3 13 3 12 4 12 4 11 5 11 5 10 7 10" fill="#bc703c"/><rect x="3" y="4" width="1" height="1"/><rect x="2" y="14" width="1" height="1"/><polygon points="21 13 21 15 19 15 19 14 18 14 18 13 17 13 17 12 16 12 16 13 17 13 17 14 18 14 18 15 19 15 19 17 17 17 17 16 16 16 16 15 15 15 15 14 14 14 14 15 15 15 15 16 16 16 16 17 17 17 17 19 15 19 15 18 14 18 14 17 13 17 13 16 11 16 11 14 9 14 9 12 7 12 7 10 5 10 5 11 4 11 4 12 3 12 3 13 2 13 2 6 3 6 3 5 4 5 4 4 5 4 5 3 10 3 10 4 9 4 9 5 8 5 8 6 7 6 7 8 8 8 8 9 12 9 12 8 14 8 14 7 15 7 15 8 16 8 16 9 17 9 17 10 18 10 18 11 19 11 19 12 20 12 20 13 21 13" fill="#fecf8f"/><rect x="2" y="5" width="1" height="1"/><rect x="1" y="6" width="1" height="8"/></svg>