<?xml version="1.0" encoding="UTF-8"?><svg id="HODL_copy_8" xmlns="http://www.w3.org/2000/svg" viewBox="0 0 24 24"><rect x="8" y="6" width="1" height="3" fill="#2b6da3"/><rect x="9" y="5" width="1" height="1" fill="#2b6da3"/><rect x="10" y="4" width="3" height="1" fill="#2b6da3"/><rect x="13" y="5" width="1" height="1" fill="#2b6da3"/><rect x="16" y="6" width="4" height="1" fill="#2b6da3"/><rect x="20" y="7" width="1" height="4" fill="#2b6da3"/><rect x="9" y="4" width="1" height="1"/><rect x="8" y="5" width="1" height="1"/><rect x="7" y="6" width="1" height="3"/><rect x="8" y="9" width="1" height="1"/><rect x="7" y="10" width="1" height="1"/><polygon points="7 11 7 13 5 13 5 12 6 12 6 11 7 11"/><rect x="4" y="11" width="1" height="1"/><rect x="3" y="10" width="1" height="1"/><rect x="2" y="9" width="1" height="1"/><rect x="1" y="10" width="1" height="9"/><rect x="2" y="19" width="1" height="1"/><rect x="3" y="18" width="1" height="1"/><rect x="4" y="17" width="1" height="1"/><polygon points="7 16 7 19 6 19 6 17 5 17 5 16 7 16"/><rect x="7" y="19" width="1" height="1"/><rect x="18" y="19" width="1" height="1"/><polygon points="21 16 21 17 20 17 20 19 19 19 19 16 21 16"/><rect x="21" y="17" width="1" height="1"/><rect x="21" y="12" width="1" height="1"/><polygon points="21 13 21 14 19 14 19 12 20 12 20 13 21 13"/><rect x="20" y="11" width="1" height="1"/><rect x="21" y="7" width="1" height="4"/><rect x="20" y="6" width="1" height="1"/><rect x="16" y="5" width="4" height="1"/><rect x="15" y="6" width="1" height="1"/><rect x="14" y="5" width="1" height="1"/><rect x="13" y="4" width="1" height="1"/><rect x="10" y="3" width="3" height="1"/><rect x="10" y="9" width="3" height="1" fill="#7dc2f9"/><rect x="9" y="6" width="1" height="3" fill="#7dc2f9"/><rect x="13" y="6" width="1" height="3" fill="#7dc2f9"/><path d="m16,7v4h4v-4h-4Zm3,3h-2v-2h2v2Z" fill="#7dc2f9"/><rect x="17" y="8" width="2" height="2" fill="#d0edf4"/><rect x="10" y="5" width="3" height="1" fill="#7dc2f9"/><rect x="10" y="6" width="3" height="3" fill="#d0edf4"/><rect x="8" y="16" width="2" height="2" fill="#d0edf4"/><rect x="11" y="13" width="1" height="5" fill="#d0edf4"/><path d="m21,13v1h-2v-2h1v-1h-4v-4h-1v-1h-1v3h-1v1h-3v-1h-1v1h-1v1h-1v2h-2v-1h-1v-1h-1v-1h-1v9h1v-1h1v-1h1v-1h2v3h1v1h10v-1h1v-3h2v1h1v-4h-1Zm-11,5h-2v-2h2v2Zm8,0h-1v1h-5v-1h-1v-5h1v-1h5v1h1v5Z" fill="#2b6da3"/><rect x="8" y="20" width="10" height="1"/><rect x="22" y="13" width="1" height="4"/><rect x="12" y="18" width="5" height="1" fill="#d0edf4"/><rect x="17" y="13" width="1" height="5" fill="#d0edf4"/><rect x="12" y="12" width="5" height="1" fill="#d0edf4"/><path d="m12,13v5h5v-5h-5Zm4,4h-3v-3h3v3Z" fill="#7dc2f9"/><rect x="13" y="14" width="3" height="3" fill="#2b6da3"/></svg>