<?xml version="1.0" encoding="UTF-8"?><svg id="HODL_copy_7" xmlns="http://www.w3.org/2000/svg" viewBox="0 0 24 24"><rect x="7" y="22" width="10" height="1"/><rect x="22" y="18" width="1" height="4"/><polygon points="20 20 19 20 19 10 20 10 20 16 21 16 21 17 20 17 20 20"/><rect x="18" y="22" width="4" height="1"/><rect x="17" y="8" width="1" height="1"/><rect x="18" y="9" width="1" height="1"/><rect x="21" y="17" width="1" height="1"/><rect x="18" y="20" width="1" height="1"/><rect x="17" y="21" width="1" height="1"/><rect x="5" y="20" width="1" height="1"/><rect x="6" y="21" width="1" height="1"/><polygon points="4 17 3 17 3 16 4 16 4 10 5 10 5 20 4 20 4 17"/><rect x="1" y="18" width="1" height="4"/><rect x="2" y="22" width="4" height="1"/><rect x="2" y="17" width="1" height="1"/><rect x="5" y="9" width="1" height="1"/><rect x="6" y="8" width="1" height="1"/><rect x="7" y="7" width="1" height="1"/><rect x="16" y="7" width="1" height="1"/><rect x="15" y="5" width="1" height="2"/><rect x="8" y="5" width="1" height="2"/><rect x="8" y="3" width="1" height="1"/><rect x="9" y="4" width="1" height="1"/><rect x="14" y="4" width="1" height="1"/><rect x="15" y="3" width="1" height="1"/><rect x="16" y="2" width="1" height="1"/><rect x="8" y="1" width="8" height="1"/><rect x="7" y="2" width="1" height="1"/><polygon points="15 5 15 7 9 7 9 5 10 5 10 4 14 4 14 5 15 5" fill="#b57018"/><path d="m16,13v-2h-2v-1h-4v1h-2v2h-1v3h1v2h2v1h4v-1h2v-2h1v-3h-1Zm-4,4v1h-1v-1h-1v-1h3v-1h-3v-3h2v-1h1v1h1v1h-3v1h3v3h-2Z" fill="#b57018"/><rect x="11" y="19" width="2" height="3" fill="#fff"/><rect x="10" y="2" width="1" height="2" fill="#fff"/><rect x="13" y="2" width="1" height="2" fill="#fff"/><polygon points="14 7 14 8 13 8 13 10 11 10 11 8 10 8 10 7 14 7" fill="#fff"/><polygon points="16 2 16 3 15 3 15 4 14 4 14 2 16 2" fill="#ffd100"/><rect x="11" y="2" width="2" height="2" fill="#ffd100"/><polygon points="10 2 10 4 9 4 9 3 8 3 8 2 10 2" fill="#ffd100"/><polygon points="11 13 11 14 14 14 14 17 12 17 12 18 11 18 11 17 10 17 10 16 13 16 13 15 10 15 10 12 12 12 12 11 13 11 13 12 14 12 14 13 11 13" fill="#ffd100"/><polygon points="7 13 7 16 8 16 8 18 10 18 10 19 11 19 11 22 7 22 7 21 6 21 6 20 5 20 5 10 6 10 6 9 7 9 7 8 8 8 8 7 10 7 10 8 11 8 11 10 10 10 10 11 8 11 8 13 7 13" fill="#ffd100"/><polygon points="6 21 6 22 2 22 2 18 3 18 3 17 4 17 4 20 5 20 5 21 6 21" fill="#ffd100"/><polygon points="22 18 22 22 18 22 18 21 19 21 19 20 20 20 20 17 21 17 21 18 22 18" fill="#ffd100"/><polygon points="19 10 19 20 18 20 18 21 17 21 17 22 13 22 13 19 14 19 14 18 16 18 16 16 17 16 17 13 16 13 16 11 14 11 14 10 13 10 13 8 14 8 14 7 16 7 16 8 17 8 17 9 18 9 18 10 19 10" fill="#ffd100"/></svg>